<svg width="148" height="42" viewBox="0 0 148 42" fill="none" xmlns="http://www.w3.org/2000/svg">
<path d="M48.3073 13.564C43.7837 13.564 41.1943 16.8397 41.1943 21.7689C41.1943 26.8541 44.1268 29.6307 48.3385 29.6307C52.3006 29.6307 54.7028 27.4469 54.7028 23.7968V23.7032H47.8081V20.1779H58.4152V33H55.0459L54.7963 30.3794C53.5485 32.1265 50.9591 33.3432 47.8705 33.3432C41.475 33.3432 37.0138 28.6948 37.0138 21.6753C37.0138 14.7495 41.5374 9.82032 48.4009 9.82032C53.6108 9.82032 57.6353 12.8465 58.2905 17.4949H54.0788C53.3613 14.8119 51.0527 13.564 48.3073 13.564ZM61.8852 14.4999C60.5749 14.4999 59.5454 13.4704 59.5454 12.1913C59.5454 10.9122 60.5749 9.91391 61.8852 9.91391C63.1331 9.91391 64.1626 10.9122 64.1626 12.1913C64.1626 13.4704 63.1331 14.4999 61.8852 14.4999ZM59.9822 33V17.5885H63.7883V33H59.9822ZM73.7105 15.7478H70.9027L67.8766 11.0994H71.4019L73.7105 15.7478ZM70.1228 33.4056C66.8471 33.4056 64.8504 31.5025 64.8504 28.6012C64.8504 25.7622 66.9095 23.9839 70.5596 23.7032L75.1768 23.36V23.0168C75.1768 20.9266 73.9289 20.0843 71.9947 20.0843C69.7484 20.0843 68.5005 21.0202 68.5005 22.6425H65.256C65.256 19.3043 68.0014 17.1205 72.1818 17.1205C76.3311 17.1205 78.8893 19.3667 78.8893 23.6408V33H75.5512L75.2704 30.7226C74.6152 32.3137 72.525 33.4056 70.1228 33.4056ZM71.3707 30.5354C73.7105 30.5354 75.208 29.1315 75.208 26.7605V25.9494L71.9947 26.199C69.6237 26.4173 68.7189 27.1973 68.7189 28.4452C68.7189 29.8491 69.6549 30.5354 71.3707 30.5354ZM84.9993 10.1947V29.3187H94.5458V33H81.0061V10.1947H84.9993ZM94.0181 26.3861C94.0181 21.2386 98.0426 17.1829 103.065 17.1829C107.464 17.1829 110.428 19.9907 110.428 24.1711C110.428 29.3187 106.435 33.3744 101.381 33.3744C96.9818 33.3744 94.0181 30.5666 94.0181 26.3861ZM97.7618 26.1054C97.7618 28.5388 99.2281 30.1298 101.599 30.1298C104.407 30.1298 106.684 27.6028 106.684 24.4519C106.684 21.9873 105.218 20.3962 102.878 20.3962C100.07 20.3962 97.7618 22.9232 97.7618 26.1054ZM124.184 23.672H115.698V33H111.705V10.1947H125.806V13.876H115.698V20.0843H124.184V23.672ZM130.498 33H126.723V9.78912H130.498V33ZM130.965 40.1442V36.9621H133.243C134.74 36.9621 135.676 36.6189 136.331 34.8095L136.768 33.6551L130.56 17.5885H134.584L138.546 28.8195L142.727 17.5885H146.657L139.108 36.4317C137.953 39.3019 136.331 40.4874 133.804 40.4874C132.743 40.4874 131.807 40.3626 130.965 40.1442Z" fill="#F5F4EE"/>
<path d="M14.4435 18.3465C21.7076 18.0213 28.203 19.7324 31 21.5836C29.8181 26.8129 25.0637 32.9048 16.9468 33C16.8694 33 16.7912 33 16.713 33C15.7196 33 14.3406 32.9826 12.848 32.7291C9.71289 32.1952 6.07628 30.6207 4.47073 25.9707C3.91252 24.3548 3.93402 22.7011 4.22091 21.2019C4.81847 18.0742 6.56723 15.6189 6.60017 15.5824H0V13.6013C7.33271 14.1534 3.65446 7.27043 10.3086 7.00216C14.616 6.88337 16.777 11.6882 14.2857 15.295C13.2617 16.7774 12.5053 17.8496 11.9631 18.7278C11.0306 20.2404 10.7328 21.1774 10.8019 22.6469C10.9629 26.0645 13.9727 27.1746 16.761 27.2684C19.79 27.3699 22.7796 25.629 23.4243 23.9762C19.8614 22.949 16.9788 22.9316 14.4412 23.1928L14.4435 18.3465Z" fill="#FEBB00"/>
</svg>
