<svg width="16" height="20" viewBox="0 0 16 20" fill="none" xmlns="http://www.w3.org/2000/svg">
<path d="M7.66435 14.3706L7.9993 14.674L8.33488 14.3713C10.0301 12.8423 11.1555 11.7342 11.6706 11.0678C12.2023 10.3799 12.5 9.65461 12.5 8.9C12.5 8.16425 12.2284 7.5213 11.7036 6.99645C11.1787 6.47159 10.5358 6.2 9.8 6.2C9.38051 6.2 8.97511 6.28514 8.58777 6.4534C8.37292 6.54674 8.17638 6.66201 8.00054 6.80001C7.82865 6.66392 7.63744 6.54954 7.42878 6.45641C7.04464 6.28496 6.63341 6.20079 6.20091 6.2H6.2C5.46425 6.2 4.8213 6.47159 4.29645 6.99645C3.77159 7.5213 3.5 8.16425 3.5 8.9C3.5 9.2606 3.54748 9.60324 3.64776 9.92414C3.75725 10.2745 3.98242 10.6429 4.28265 11.0229C4.58427 11.4048 5.00465 11.8585 5.5364 12.3815C6.06799 12.9043 6.77796 13.5678 7.66435 14.3706ZM0.5 9.10013V9.1V3.3465L8 0.534L15.5 3.3465V9.1C15.5 11.5263 14.7803 13.728 13.3335 15.7191C11.9158 17.6702 10.1404 18.9162 8.00008 19.4836C5.86032 18.9156 4.08485 17.6692 2.66643 15.718C1.21903 13.7269 0.499362 11.5256 0.5 9.10013Z" fill="#384C0D" stroke="#384C0D"/>
</svg>
