<svg width="20" height="20" viewBox="0 0 20 20" fill="none" xmlns="http://www.w3.org/2000/svg">
<path d="M10.5 17.92V18.4848L11.0607 18.4163C12.9713 18.1828 14.6245 17.3826 16.0036 16.0036C17.3826 14.6245 18.1828 12.9713 18.4163 11.0607L18.4848 10.5H17.92H14.92H14.518L14.4317 10.8926C14.2318 11.801 13.8177 12.5551 13.1864 13.1864C12.5551 13.8177 11.801 14.2318 10.8926 14.4317L10.5 14.518V14.92V17.92ZM14.6464 9.35355L14.7929 9.5H15H17.92H18.4882L18.4159 8.93642C18.1503 6.86413 17.2109 5.08677 15.6061 3.62981L15.6061 3.62979L15.6019 3.62602C13.9998 2.20428 12.1215 1.5 10 1.5C7.87853 1.5 6.00024 2.20428 4.39813 3.62602L4.3981 3.626L4.39391 3.62981C2.78914 5.08677 1.84974 6.86413 1.58406 8.93642L1.5118 9.5H2.08H5H5.20711L5.35355 9.35355L8.20711 6.5H11.7929L14.6464 9.35355ZM8.93122 18.4152L9.5 18.4942V17.92V14.92V14.518L9.10743 14.4317C8.19898 14.2318 7.44486 13.8177 6.81355 13.1864C6.18225 12.5551 5.76818 11.801 5.56832 10.8926L5.48196 10.5H5.08H2.08H1.51401L1.58382 11.0617C1.81783 12.9444 2.61936 14.5765 3.99645 15.9536C5.37309 17.3302 7.02294 18.1502 8.93122 18.4152ZM10 0.5C12.6137 0.5 14.8376 1.4447 16.6964 3.30355C18.5553 5.16241 19.5 7.38627 19.5 10C19.5 12.6137 18.5553 14.8376 16.6964 16.6964C14.8376 18.5553 12.6137 19.5 10 19.5C7.38627 19.5 5.16241 18.5553 3.30355 16.6964C1.4447 14.8376 0.5 12.6137 0.5 10C0.5 7.38627 1.4447 5.16241 3.30355 3.30355C5.16241 1.4447 7.38627 0.5 10 0.5Z" fill="#384C0D" stroke="#384C0D"/>
</svg>
