<svg width="20" height="14" viewBox="0 0 20 14" fill="none" xmlns="http://www.w3.org/2000/svg">
<path d="M19.5 8V13.5H18.5V12V11.5H18H2H1.5V12V13.5H0.5V8C0.5 7.61992 0.576884 7.28927 0.722214 6.99861C0.879193 6.68465 1.08558 6.40692 1.34331 6.16351L1.5 6.01552V5.8V3C1.5 2.29776 1.74005 1.71705 2.22855 1.22855C2.71705 0.740053 3.29776 0.5 4 0.5H8C8.31996 0.5 8.61122 0.558907 8.87904 0.672999C9.16135 0.793262 9.42466 0.959735 9.66969 1.17536L10.0004 1.46642L10.3308 1.17492C10.5756 0.958932 10.8385 0.792768 11.1202 0.673331C11.3884 0.559622 11.6801 0.500607 12.0005 0.5H16C16.7022 0.5 17.2829 0.740053 17.7714 1.22855C18.2599 1.71705 18.5 2.29776 18.5 3V5.8V6.01552L18.6567 6.16351C18.9144 6.40692 19.1208 6.68465 19.2778 6.99861C19.4231 7.28927 19.5 7.61992 19.5 8ZM10.5 5V5.5H11H17H17.5V5V3C17.5 2.59047 17.3557 2.22362 17.0649 1.93383C16.7751 1.64505 16.4095 1.50096 16.0012 1.5H16H12C11.5905 1.5 11.2236 1.64427 10.9338 1.93506C10.645 2.22485 10.501 2.59055 10.5 2.99882V3V5ZM2.5 5V5.5H3H9H9.5V5V3C9.5 2.59047 9.35573 2.22362 9.06494 1.93383C8.77515 1.64505 8.40945 1.50096 8.00118 1.5H8H4C3.59047 1.5 3.22362 1.64427 2.93383 1.93506C2.64505 2.22485 2.50096 2.59055 2.5 2.99882V3V5Z" fill="#384C0D" stroke="#384C0D"/>
</svg>
