<svg width="22" height="22" viewBox="0 0 22 22" fill="none" xmlns="http://www.w3.org/2000/svg">
<path d="M21.5 16.9988V21.2788C21.5 21.3285 21.478 21.387 21.4322 21.4346C21.387 21.4815 21.3377 21.4988 21.3 21.4988H20.69C20.6728 21.4988 20.6293 21.4896 20.5784 21.4315C20.5265 21.3724 20.5 21.2974 20.5 21.2388V19.9988V19.4988H20H12H11.5V19.9988V21.2388C11.5 21.302 11.4727 21.3779 11.4233 21.4353C11.3754 21.4911 11.3356 21.4988 11.32 21.4988H10.7C10.6623 21.4988 10.613 21.4815 10.5678 21.4346C10.522 21.387 10.5 21.3285 10.5 21.2788V16.9988M21.5 16.9988V15.8532L20.0981 11.8239C20.098 11.8238 20.098 11.8237 20.098 11.8237C20.0805 11.7738 20.0546 11.7271 20.0212 11.6857L20.0729 11.8364L21.1029 14.8364L21.3303 15.4987H20.63H20M21.5 16.9988C21.5 16.1726 20.8261 15.4987 20 15.4987M21.5 16.9988C21.5 17.8249 20.8261 18.4988 20 18.4988C19.1739 18.4988 18.5 17.8249 18.5 16.9988C18.5 16.1726 19.1739 15.4987 20 15.4987M20 15.4987H12M12 15.4987H11.38H10.6797L10.9071 14.8364L11.9371 11.8364L11.9928 11.6742C11.9534 11.7194 11.9222 11.7718 11.9 11.8296L10.5 15.8532V16.9988M12 15.4987C11.1739 15.4987 10.5 16.1726 10.5 16.9988M12 15.4987C12.8261 15.4987 13.5 16.1726 13.5 16.9988C13.5 17.8249 12.8261 18.4988 12 18.4988C11.1739 18.4988 10.5 17.8249 10.5 16.9988M7.66285 7.08628L0.83572 3.49354L1.57649 2.75798L10.4976 4.81595L10.7676 4.87824L10.9636 4.6823L14.8536 0.792303L14.8536 0.792388L14.8612 0.784502C15.2243 0.405166 15.8957 0.405166 16.2588 0.784501L16.2587 0.784584L16.2664 0.792303C16.6664 1.1923 16.6528 1.83824 16.2758 2.1961L16.2757 2.19597L16.2664 2.2052L12.3764 6.0952L12.1804 6.2912L12.2428 6.56128L12.9213 9.49875H12.41C11.6594 9.49875 10.9685 9.80524 10.4972 10.3418L10.0031 9.39703L9.68767 8.79397L9.20645 9.2752L5.30645 13.1752L5.1308 13.3508L5.16467 13.5969L5.471 15.8223L5.06435 16.2328L3.62747 13.6366L3.55801 13.5111L3.43259 13.4415L0.816927 11.9902L1.23857 11.5606L3.4868 11.8934L3.73566 11.9302L3.91355 11.7523L7.78355 7.8823L8.26349 7.40236L7.66285 7.08628Z" fill="#384C0D" stroke="#384C0D"/>
</svg>
