<svg width="19" height="20" viewBox="0 0 19 20" fill="none" xmlns="http://www.w3.org/2000/svg">
<path d="M14.5307 4.96246L14.5193 4.98047H14.5406H18C18.4084 4.98047 18.7383 5.31038 18.7383 5.71875V8.98828H10.1836V4.96875V4.95703H10.1719H8.57812H8.56641V4.96875V8.98828H0.0117188V5.71875C0.0117188 5.31038 0.341628 4.98047 0.75 4.98047H4.20938H4.23079L4.21924 4.96243C3.89932 4.4627 3.71484 3.86957 3.71484 3.23438C3.71484 1.45725 5.16038 0.0117188 6.9375 0.0117188C7.90427 0.0117188 8.77532 0.441386 9.36617 1.11864L9.375 1.12876L9.38383 1.11864C9.97468 0.441386 10.8457 0.0117188 11.8125 0.0117188C13.5896 0.0117188 15.0352 1.45725 15.0352 3.23438C15.0352 3.86955 14.8483 4.46269 14.5307 4.96246ZM8.57812 4.88672H8.58984V4.875V3.23438C8.58984 2.32322 7.84866 1.58203 6.9375 1.58203C6.02634 1.58203 5.28516 2.32322 5.28516 3.23438C5.28516 4.14553 6.02634 4.88672 6.9375 4.88672H8.57812ZM10.1602 4.875V4.88672H10.1719H11.8125C12.7237 4.88672 13.4648 4.14553 13.4648 3.23438C13.4648 2.32322 12.7237 1.58203 11.8125 1.58203C10.9013 1.58203 10.1602 2.32322 10.1602 3.23438V4.875ZM1.875 19.3945C1.46663 19.3945 1.13672 19.0646 1.13672 18.6562V10.6055H8.56641V19.3945H1.875ZM16.875 19.3945H10.1836V10.6055H17.6133V18.6562C17.6133 19.0646 17.2834 19.3945 16.875 19.3945Z" fill="#384C0D" stroke="#384C0D" stroke-width="0.0234375"/>
</svg>
