<svg width="22" height="16" viewBox="0 0 22 16" fill="none" xmlns="http://www.w3.org/2000/svg">
<path d="M15.5 13.1994V13.2V15.5H0.5V13.2C0.5 12.7242 0.621192 12.2945 0.86387 11.9C1.10896 11.5016 1.42849 11.2032 1.82717 10.9955C2.82735 10.4957 3.84068 10.1224 4.86755 9.87401C5.89573 9.62532 6.93971 9.50067 8.0003 9.50003C9.06049 9.49938 10.1041 9.62398 11.1319 9.87387C12.1592 10.1236 13.1729 10.4971 14.1734 10.9958C14.5724 11.2028 14.892 11.5009 15.137 11.8997C15.3798 12.295 15.5006 12.7246 15.5 13.1994ZM13.9986 0.500026H14C14.9663 0.500026 15.7811 0.838266 16.4714 1.52858C17.1618 2.21889 17.5 3.03369 17.5 4.00003C17.5 4.96636 17.1618 5.78116 16.4714 6.47147C15.7811 7.16179 14.9663 7.50003 14 7.50003C13.8699 7.50003 13.6965 7.48702 13.4753 7.45765C13.7305 7.06354 13.9411 6.64398 14.1066 6.19948C14.3696 5.49299 14.5007 4.7587 14.5 3.99955C14.4993 3.24105 14.3683 2.50739 14.1069 1.80142C13.9395 1.34935 13.725 0.92311 13.4638 0.523226C13.6421 0.507242 13.8204 0.499515 13.9986 0.500026ZM18.5 15.5V13C18.5 12.1686 18.2674 11.3757 17.816 10.6285C17.6787 10.4013 17.5245 10.1849 17.3537 9.97913C17.5378 10.0283 17.7187 10.0815 17.8965 10.1389C18.6185 10.3718 19.2894 10.6554 19.9102 10.9888C20.468 11.2991 20.8664 11.629 21.13 11.9686C21.3835 12.2952 21.5 12.6347 21.5 13V15.5H18.5ZM8 7.50003C7.03366 7.50003 6.21887 7.16179 5.52855 6.47147C4.83824 5.78116 4.5 4.96636 4.5 4.00003C4.5 3.03369 4.83824 2.21889 5.52855 1.52858C6.21887 0.838266 7.03366 0.500026 8 0.500026C8.96634 0.500026 9.78113 0.838266 10.4714 1.52858C11.1618 2.21889 11.5 3.03369 11.5 4.00003C11.5 4.96636 11.1618 5.78116 10.4714 6.47147C9.78113 7.16179 8.96634 7.50003 8 7.50003Z" fill="#384C0D" stroke="#384C0D"/>
</svg>
