<svg width="20" height="20" viewBox="0 0 20 20" fill="none" xmlns="http://www.w3.org/2000/svg">
<path d="M5.55701 2.8838L5.55585 2.87626C5.54262 2.7905 5.50194 2.7062 5.3978 2.61607C5.30145 2.53269 5.20812 2.5 5.1 2.5H1.05C0.873681 2.5 0.753656 2.55345 0.653553 2.65355C0.553481 2.75363 0.500032 2.87361 0.5 3.04984L5.55701 2.8838ZM5.55701 2.8838L5.55841 2.8913M5.55701 2.8838L5.55841 2.8913M5.55841 2.8913L6.20557 6.37605C6.23168 6.59512 6.21932 6.74553 6.19262 6.84344C6.16533 6.94351 6.11775 7.02514 6.04645 7.09645L6.04464 7.09826M5.55841 2.8913L6.04464 7.09826M6.04464 7.09826L3.61964 9.54826L3.3589 9.81169M6.04464 7.09826L3.3589 9.81169M3.3589 9.81169L3.53515 10.1378M3.3589 9.81169L3.53515 10.1378M3.53515 10.1378C3.88317 10.7816 4.29535 11.4021 4.77081 11.9994C5.24199 12.5913 5.75997 13.1603 6.32436 13.7065C6.85441 14.2363 7.41045 14.7283 7.99248 15.1823C8.57767 15.6387 9.19686 16.0556 9.84982 16.4329L10.1821 16.625M3.53515 10.1378L10.1821 16.625M10.1821 16.625L10.4536 16.3536M10.1821 16.625L10.4536 16.3536M10.4536 16.3536L12.8036 14.0036C12.8858 13.9213 13.0062 13.8461 13.1854 13.7908C13.3576 13.7376 13.5165 13.7242 13.6669 13.7433L17.0793 14.4357C17.2149 14.4774 17.3155 14.545 17.3951 14.638C17.4733 14.7295 17.5 14.8117 17.5 14.9V18.95C17.5 19.1263 17.4466 19.2463 17.3464 19.3464C17.2463 19.4466 17.1263 19.5 16.95 19.5C14.9417 19.5 12.9525 19.0628 10.9789 18.1815M10.4536 16.3536L10.9789 18.1815M15 3.5H14.5H14V4V8V8.5H14.5H15.5H16V8V4V3.5H15.5H15ZM15 3.5C15.2746 3.5 15.5161 3.39101 15.7036 3.20355C15.891 3.0161 16 2.77461 16 2.5C16 2.22539 15.891 1.9839 15.7036 1.79645C15.5161 1.60899 15.2746 1.5 15 1.5C14.7254 1.5 14.4839 1.60899 14.2964 1.79645C14.109 1.9839 14 2.22539 14 2.5C14 2.77461 14.109 3.0161 14.2964 3.20355C14.4839 3.39101 14.7254 3.5 15 3.5ZM10.9789 18.1815C9.00455 17.2998 7.20465 16.0482 5.57862 14.4215M10.9789 18.1815L5.57862 14.4215M5.57862 14.4215C3.95253 12.7948 2.70119 10.9948 1.81952 9.02107M5.57862 14.4215L1.81952 9.02107M1.81952 9.02107C0.9382 7.04812 0.500666 5.05901 0.5 3.05L1.81952 9.02107ZM2.59165 8.19979L2.8848 8.87231L3.40355 8.35355L5.05355 6.70355L5.24091 6.5162L5.19108 6.25596L4.74108 3.90596L4.66334 3.5H4.25H2.05H1.48532L1.55368 4.06053C1.63901 4.76028 1.75851 5.45171 1.9122 6.13476C2.0694 6.83344 2.29615 7.52187 2.59165 8.19979ZM11.1323 17.0672L11.1264 17.0731L11.8022 17.3642C12.1416 17.5104 12.4838 17.6436 12.8288 17.7639C13.1644 17.8825 13.5022 17.9886 13.8424 18.0821C14.5397 18.2738 15.2463 18.3961 15.9619 18.4485C15.9624 18.4486 15.963 18.4486 15.9635 18.4487L16.5 18.4915V18.4879V17.95V15.75V15.3452L16.1041 15.2609L13.7541 14.7609L13.4885 14.7044L13.488 14.7043L13.2965 14.8964L13.2964 14.8964L13.2959 14.897L11.6464 16.5464L11.1277 17.0652L11.1323 17.0672ZM15.0005 9.5H15C13.7488 9.5 12.6972 9.06472 11.8167 8.18357C10.9359 7.30222 10.5006 6.25037 10.5 4.99976C10.4994 3.74953 10.9346 2.69795 11.8164 1.81667C12.6985 0.935203 13.7503 0.5 15 0.5C16.2497 0.5 17.3019 0.935214 18.1847 1.81679C19.0671 2.69798 19.5018 3.74933 19.5 4.99928C19.4982 6.25028 19.0627 7.30281 18.183 8.18493C17.304 9.06627 16.2528 9.50121 15.0005 9.5ZM3.83666 4.5L4.15909 6.1838L3.23434 7.10856C3.09332 6.71329 2.97787 6.31555 2.8878 5.91524C2.78263 5.44778 2.69423 4.97604 2.62263 4.5H3.83666ZM14.1106 17.1144C13.7916 17.028 13.4747 16.93 13.1601 16.8204C13.0696 16.7884 12.9792 16.7554 12.889 16.7215L13.812 15.7957L15.5 16.1548V17.3943C15.0358 17.3327 14.5727 17.2394 14.1106 17.1144Z" fill="#384C0D" stroke="#384C0D"/>
</svg>
