<svg width="16" height="16" viewBox="0 0 16 16" fill="none" xmlns="http://www.w3.org/2000/svg">
<path d="M15.5 13.1994V13.2V15.5H0.5V13.2C0.5 12.7242 0.621192 12.2945 0.86387 11.9C1.10896 11.5016 1.42849 11.2032 1.82717 10.9954C2.82735 10.4957 3.84068 10.1224 4.86755 9.87399C5.89573 9.62529 6.93971 9.50064 8.0003 9.5C9.06049 9.49936 10.1041 9.62396 11.1319 9.87385C12.1592 10.1236 13.1729 10.4971 14.1734 10.9957C14.5724 11.2028 14.892 11.5009 15.137 11.8997C15.3798 12.2949 15.5006 12.7246 15.5 13.1994ZM8 7.5C7.03366 7.5 6.21887 7.16176 5.52855 6.47145C4.83824 5.78113 4.5 4.96634 4.5 4C4.5 3.03366 4.83824 2.21887 5.52855 1.52855C6.21887 0.83824 7.03366 0.5 8 0.5C8.96634 0.5 9.78113 0.83824 10.4714 1.52855C11.1618 2.21887 11.5 3.03366 11.5 4C11.5 4.96634 11.1618 5.78113 10.4714 6.47145C9.78113 7.16176 8.96634 7.5 8 7.5Z" fill="#384C0D" stroke="#384C0D"/>
</svg>
