<svg width="20" height="23" viewBox="0 0 20 23" fill="none" xmlns="http://www.w3.org/2000/svg">
<path d="M2.37604 17.144C1.59206 16.4274 0.978124 15.5044 0.649544 14.5H19.2899C19.1408 14.9602 18.9353 15.401 18.6777 15.8123C18.3551 16.3155 17.988 16.7567 17.5708 17.1434C17.1043 16.8896 16.6799 16.544 16.328 16.1615L15.9265 15.7251L15.5642 16.1945C14.2744 17.8652 11.6556 17.8652 10.3658 16.1945L9.96732 15.6783L9.57224 16.197C8.30234 17.8643 5.66766 17.8643 4.39776 16.197L4.05105 15.7418L3.64645 16.1464C3.24723 16.5457 2.83351 16.8921 2.37604 17.144ZM16.1948 20.8086L15.9575 20.6823L15.7212 20.8107C14.0301 21.7298 11.8999 21.7298 10.2088 20.8107L9.97 20.6809L9.73124 20.8107C8.03931 21.7302 5.91002 21.729 4.24077 20.8118L3.99748 20.6781L3.75537 20.8139C2.78096 21.3606 1.66071 21.5144 0.5 21.5104V20.5084C1.6844 20.5042 2.88311 20.3173 4.00314 19.6033C5.79631 20.7178 8.16541 20.7147 9.97066 19.5992C11.7838 20.715 14.1457 20.7174 15.9535 19.6036C17.0603 20.3173 18.2631 20.504 19.44 20.5084V21.5H18.96C17.9823 21.5 17.0628 21.2703 16.1948 20.8086ZM8.5 12H1.95834L8.5 2.62089V12ZM18.442 12H11.192C12.2375 8.55445 12.1361 4.2722 11.2564 0.831668C13.1327 1.69353 14.8078 3.26727 16.075 5.19014C17.4419 7.26424 18.3065 9.70331 18.442 12Z" fill="#384C0D" stroke="#384C0D"/>
</svg>
