<svg width="22" height="12" viewBox="0 0 22 12" fill="none" xmlns="http://www.w3.org/2000/svg">
<path d="M21.5 6V8.5H20H19.5V9C19.5 9.66304 19.2366 10.2989 18.7678 10.7678C18.2989 11.2366 17.663 11.5 17 11.5C16.337 11.5 15.7011 11.2366 15.2322 10.7678C14.7634 10.2989 14.5 9.66304 14.5 9V8.5H14H8H7.5V9C7.5 9.66304 7.23661 10.2989 6.76777 10.7678C6.29893 11.2366 5.66304 11.5 5 11.5C4.33696 11.5 3.70107 11.2366 3.23223 10.7678C2.76339 10.2989 2.5 9.66304 2.5 9V8.5H2H0.5V6.18103L5.23419 0.5H14.75L17.6 4.3L17.75 4.5H18H20C20.8339 4.5 21.5 5.16614 21.5 6ZM5.5 1H5.25969L5.10957 1.18765L3.10957 3.68765L2.45969 4.5H3.5H9.5H10V4V1.5V1H9.5H5.5ZM11 1H10.5V1.5V4V4.5H11H16.46H17.4873L16.8535 3.69151L14.8935 1.19151L14.7433 1H14.5H11ZM6.41421 7.58579C6.03914 7.21071 5.53043 7 5 7C4.46957 7 3.96086 7.21071 3.58579 7.58579C3.21071 7.96086 3 8.46957 3 9C3 9.53043 3.21071 10.0391 3.58579 10.4142C3.96086 10.7893 4.46957 11 5 11C5.53043 11 6.03914 10.7893 6.41421 10.4142C6.78929 10.0391 7 9.53043 7 9C7 8.46957 6.78929 7.96086 6.41421 7.58579ZM18.4142 7.58579C18.0391 7.21071 17.5304 7 17 7C16.4696 7 15.9609 7.21071 15.5858 7.58579C15.2107 7.96086 15 8.46957 15 9C15 9.53043 15.2107 10.0391 15.5858 10.4142C15.9609 10.7893 16.4696 11 17 11C17.5304 11 18.0391 10.7893 18.4142 10.4142C18.7893 10.0391 19 9.53043 19 9C19 8.46957 18.7893 7.96086 18.4142 7.58579Z" fill="#384C0D" stroke="#384C0D"/>
</svg>
