<svg width="13" height="22" viewBox="0 0 13 22" fill="none" xmlns="http://www.w3.org/2000/svg">
<mask id="path-1-inside-1_147_300" fill="white">
<path d="M8.12 9.8H13V8H9.38L7.38 4.67C7.08 4.17 6.54 3.83 5.92 3.83C5.74 3.83 5.58 3.86 5.42 3.91L0 5.6V10.8H1.8V7.13L3.91 6.47L0 21.8H1.8L4.67 13.69L7 16.8V21.8H8.8V15.39L6.31 10.85L7.04 7.98M8 3.6C9 3.6 9.8 2.8 9.8 1.8C9.8 0.8 9 0 8 0C7 0 6.2 0.8 6.2 1.8C6.2 2.8 7 3.6 8 3.6Z"/>
</mask>
<path d="M8.12 9.8H13V8H9.38L7.38 4.67C7.08 4.17 6.54 3.83 5.92 3.83C5.74 3.83 5.58 3.86 5.42 3.91L0 5.6V10.8H1.8V7.13L3.91 6.47L0 21.8H1.8L4.67 13.69L7 16.8V21.8H8.8V15.39L6.31 10.85L7.04 7.98M8 3.6C9 3.6 9.8 2.8 9.8 1.8C9.8 0.8 9 0 8 0C7 0 6.2 0.8 6.2 1.8C6.2 2.8 7 3.6 8 3.6Z" fill="#384C0D"/>
<path d="M13 9.8V10.8H14V9.8H13ZM13 8H14V7H13V8ZM9.38 8L8.52273 8.51487L8.8141 9H9.38V8ZM7.38 4.67L6.52251 5.1845L6.52273 5.18487L7.38 4.67ZM5.42 3.91L5.71767 4.86467L5.71828 4.86448L5.42 3.91ZM0 5.6L-0.297673 4.64533L-1 4.86432V5.6H0ZM0 10.8H-1V11.8H0V10.8ZM1.8 10.8V11.8H2.8V10.8H1.8ZM1.8 7.13L1.50147 6.1756L0.8 6.39502V7.13H1.8ZM3.91 6.47L4.87898 6.71714L5.3219 4.98058L3.61147 5.5156L3.91 6.47ZM0 21.8L-0.968979 21.5529L-1.28707 22.8H0V21.8ZM1.8 21.8V22.8H2.50689L2.74271 22.1336L1.8 21.8ZM4.67 13.69L5.47031 13.0904L4.3504 11.5956L3.72729 13.3564L4.67 13.69ZM7 16.8H8V16.467L7.80031 16.2004L7 16.8ZM7 21.8H6V22.8H7V21.8ZM8.8 21.8V22.8H9.8V21.8H8.8ZM8.8 15.39H9.8V15.1338L9.67679 14.9091L8.8 15.39ZM6.31 10.85L5.34086 10.6035L5.24372 10.9854L5.43321 11.3309L6.31 10.85ZM8.12 10.8H13V8.8H8.12V10.8ZM14 9.8V8H12V9.8H14ZM13 7H9.38V9H13V7ZM10.2373 7.48513L8.23727 4.15513L6.52273 5.18487L8.52273 8.51487L10.2373 7.48513ZM8.23749 4.1555C7.77106 3.37811 6.91817 2.83 5.92 2.83V4.83C6.16183 4.83 6.38894 4.96189 6.52251 5.1845L8.23749 4.1555ZM5.92 2.83C5.62119 2.83 5.35984 2.88111 5.12173 2.95552L5.71828 4.86448C5.80016 4.83889 5.85881 4.83 5.92 4.83V2.83ZM5.12233 2.95533L-0.297673 4.64533L0.297673 6.55467L5.71767 4.86467L5.12233 2.95533ZM-1 5.6V10.8H1V5.6H-1ZM0 11.8H1.8V9.8H0V11.8ZM2.8 10.8V7.13H0.8V10.8H2.8ZM2.09853 8.0844L4.20853 7.4244L3.61147 5.5156L1.50147 6.1756L2.09853 8.0844ZM2.94102 6.22286L-0.968979 21.5529L0.968979 22.0471L4.87898 6.71714L2.94102 6.22286ZM0 22.8H1.8V20.8H0V22.8ZM2.74271 22.1336L5.61271 14.0236L3.72729 13.3564L0.857289 21.4664L2.74271 22.1336ZM3.86969 14.2896L6.19969 17.3996L7.80031 16.2004L5.47031 13.0904L3.86969 14.2896ZM6 16.8V21.8H8V16.8H6ZM7 22.8H8.8V20.8H7V22.8ZM9.8 21.8V15.39H7.8V21.8H9.8ZM9.67679 14.9091L7.18679 10.3691L5.43321 11.3309L7.92321 15.8709L9.67679 14.9091ZM7.27914 11.0965L8.00914 8.22651L6.07086 7.73349L5.34086 10.6035L7.27914 11.0965ZM8 4.6C9.55228 4.6 10.8 3.35228 10.8 1.8H8.8C8.8 2.24771 8.44772 2.6 8 2.6V4.6ZM10.8 1.8C10.8 0.247715 9.55228 -1 8 -1V1C8.44772 1 8.8 1.35228 8.8 1.8H10.8ZM8 -1C6.44772 -1 5.2 0.247715 5.2 1.8H7.2C7.2 1.35228 7.55228 1 8 1V-1ZM5.2 1.8C5.2 3.35228 6.44772 4.6 8 4.6V2.6C7.55228 2.6 7.2 2.24771 7.2 1.8H5.2Z" fill="#384C0D" mask="url(#path-1-inside-1_147_300)"/>
<line x1="12.5" y1="6" x2="12.5" y2="22" stroke="#384C0D"/>
</svg>
