<svg width="27" height="22" viewBox="0 0 27 22" fill="none" xmlns="http://www.w3.org/2000/svg">
<path d="M1 21H25.9683M6.44309 15.4763L3.49683 14.9959L1 10.1927L2.37326 9.53225C2.72176 9.36333 3.10658 9.27534 3.49683 9.27534C3.88708 9.27534 4.2719 9.36333 4.6204 9.53225L4.83263 9.65233C5.18114 9.82124 5.56596 9.90923 5.95621 9.90923C6.34646 9.90923 6.73128 9.82124 7.07978 9.65233L8.49049 8.99188L4.74525 1.78701L5.86882 1.24664C6.28413 1.05012 6.74807 0.968513 7.20881 1.01092C7.66956 1.05333 8.10898 1.21809 8.47801 1.48681L13.4966 5.08924C13.8669 5.36028 14.3086 5.52639 14.7719 5.56882C15.2351 5.61126 15.7015 5.52833 16.1183 5.32941L21.3492 2.85573C22.0173 2.53049 22.7878 2.45766 23.5089 2.65159L24.7199 2.98782C24.9701 3.05466 25.2017 3.17427 25.3978 3.33798C25.5939 3.50169 25.7496 3.70538 25.8536 3.93423C25.9577 4.16309 26.0074 4.41136 25.9991 4.661C25.9909 4.91065 25.9249 5.15539 25.806 5.37744L25.3316 6.29005C25.0445 6.84243 24.5826 7.29874 23.9958 7.58693L7.96616 15.2361C7.49481 15.4607 6.96177 15.5363 6.44309 15.4522V15.4763Z" stroke="#3E1A09" stroke-width="2" stroke-linecap="round" stroke-linejoin="round"/>
</svg>
