<svg width="27" height="26" viewBox="0 0 27 26" fill="none" xmlns="http://www.w3.org/2000/svg">
<path d="M1 25H26M3.2125 11.1785L1 9L3.5 3.46154L4.875 4.13846C5.5625 4.48308 6 5.17231 6 5.92308C6 6.67385 6.4375 7.36308 7.125 7.70769L8.5 8.38462L12.25 1L13.5625 1.65231C13.9273 1.83119 14.2421 2.09515 14.4795 2.4212C14.717 2.74726 14.8699 3.12553 14.925 3.52308L15.825 10.1692C15.8801 10.5668 16.033 10.945 16.2705 11.2711C16.5079 11.5972 16.8227 11.8611 17.1875 12.04L22.6875 14.7477C23.2125 15.0185 23.6625 15.4246 23.95 15.9292L24.7 17.1969C25.3125 18.28 24.625 19.6338 23.375 19.7815L21.9 19.9662C21.3125 20.04 20.7125 19.9415 20.1875 19.6708L3.8625 11.6462C3.6216 11.5259 3.40208 11.3679 3.2125 11.1785Z" stroke="#3E1A09" stroke-width="2" stroke-linecap="round" stroke-linejoin="round"/>
</svg>
