<svg width="26" height="26" viewBox="0 0 26 26" fill="none" xmlns="http://www.w3.org/2000/svg">
<path d="M7.71502 0H18.4013C22.4722 0 25.7799 3.30765 25.7799 7.37859V18.0648C25.7799 20.0218 25.0025 21.8985 23.6187 23.2823C22.235 24.666 20.3582 25.4434 18.4013 25.4434H7.71502C3.64407 25.4434 0.336426 22.1358 0.336426 18.0648V7.37859C0.336426 5.42167 1.11381 3.54489 2.49757 2.16114C3.88132 0.777385 5.75809 0 7.71502 0ZM7.46058 2.54434C6.24594 2.54434 5.08105 3.02686 4.22217 3.88574C3.36328 4.74462 2.88077 5.90952 2.88077 7.12416V18.3193C2.88077 20.8509 4.92896 22.8991 7.46058 22.8991H18.6557C19.8703 22.8991 21.0352 22.4166 21.8941 21.5577C22.753 20.6988 23.2355 19.5339 23.2355 18.3193V7.12416C23.2355 4.59254 21.1873 2.54434 18.6557 2.54434H7.46058ZM19.737 4.4526C20.1588 4.4526 20.5633 4.62014 20.8615 4.91836C21.1597 5.21659 21.3273 5.62106 21.3273 6.04281C21.3273 6.46456 21.1597 6.86904 20.8615 7.16726C20.5633 7.46549 20.1588 7.63303 19.737 7.63303C19.3153 7.63303 18.9108 7.46549 18.6126 7.16726C18.3144 6.86904 18.1468 6.46456 18.1468 6.04281C18.1468 5.62106 18.3144 5.21659 18.6126 4.91836C18.9108 4.62014 19.3153 4.4526 19.737 4.4526ZM13.0581 6.36086C14.7451 6.36086 16.3631 7.03102 17.5559 8.22391C18.7488 9.4168 19.419 11.0347 19.419 12.7217C19.419 14.4087 18.7488 16.0266 17.5559 17.2195C16.3631 18.4124 14.7451 19.0826 13.0581 19.0826C11.3711 19.0826 9.75323 18.4124 8.56033 17.2195C7.36744 16.0266 6.69728 14.4087 6.69728 12.7217C6.69728 11.0347 7.36744 9.4168 8.56033 8.22391C9.75323 7.03102 11.3711 6.36086 13.0581 6.36086ZM13.0581 8.9052C12.0459 8.9052 11.0752 9.30729 10.3595 10.023C9.64372 10.7388 9.24162 11.7095 9.24162 12.7217C9.24162 13.7339 9.64372 14.7047 10.3595 15.4204C11.0752 16.1361 12.0459 16.5382 13.0581 16.5382C14.0703 16.5382 15.0411 16.1361 15.7568 15.4204C16.4726 14.7047 16.8747 13.7339 16.8747 12.7217C16.8747 11.7095 16.4726 10.7388 15.7568 10.023C15.0411 9.30729 14.0703 8.9052 13.0581 8.9052Z" fill="#FEBB00"/>
</svg>
