<svg width="26" height="21" viewBox="0 0 26 21" fill="none" xmlns="http://www.w3.org/2000/svg">
<path d="M13.211 0.544922C14.2987 0.544922 15.4144 0.57291 16.4957 0.618708L17.773 0.679772L18.9955 0.752286L20.1405 0.829888L21.1862 0.911307C22.3211 0.998168 23.3889 1.48244 24.2019 2.27894C25.0149 3.07544 25.521 4.13313 25.6312 5.26595L25.6821 5.80662L25.7775 6.9643C25.8665 8.16395 25.9327 9.47175 25.9327 10.7223C25.9327 11.9728 25.8665 13.2806 25.7775 14.4803L25.6821 15.638C25.6655 15.8237 25.649 16.0031 25.6312 16.1786C25.521 17.3117 25.0147 18.3695 24.2014 19.166C23.3882 19.9626 22.32 20.4467 21.1849 20.5333L20.1418 20.6134L18.9968 20.6923L17.773 20.7648L16.4957 20.8259C15.4014 20.8734 14.3063 20.898 13.211 20.8997C12.1157 20.898 11.0205 20.8734 9.92622 20.8259L8.64896 20.7648L7.42641 20.6923L6.28145 20.6134L5.23573 20.5333C4.10089 20.4464 3.03303 19.9621 2.22001 19.1656C1.40699 18.3691 0.9009 17.3115 0.790762 16.1786L0.739876 15.638L0.644463 14.4803C0.547189 13.2299 0.49542 11.9764 0.489258 10.7223C0.489258 9.47175 0.555411 8.16395 0.644463 6.9643L0.739876 5.80662C0.756414 5.62088 0.772952 5.44151 0.790762 5.26595C0.900857 4.13333 1.40677 3.0758 2.21953 2.27933C3.03229 1.48286 4.09984 0.998454 5.23446 0.911307L6.27891 0.829888L7.42386 0.752286L8.64769 0.679772L9.92495 0.618708C11.0197 0.571171 12.1152 0.54657 13.211 0.544922ZM13.211 3.08926C12.1614 3.08926 11.0814 3.11725 10.0305 3.16051L8.78636 3.2203L7.59179 3.29027L6.46974 3.3666L5.44182 3.44674C4.90157 3.48508 4.39234 3.71345 4.00439 4.09139C3.61644 4.46932 3.37483 4.97241 3.32238 5.51148C3.17354 7.04953 3.0336 8.96415 3.0336 10.7223C3.0336 12.4804 3.17354 14.3951 3.32238 15.9331C3.43052 17.0424 4.31086 17.905 5.44182 17.9978L6.46974 18.0767L7.59179 18.153L8.78636 18.2243L10.0305 18.2841C11.0814 18.3273 12.1614 18.3553 13.211 18.3553C14.2605 18.3553 15.3406 18.3273 16.3914 18.2841L17.6356 18.2243L18.8302 18.1543L19.9522 18.078L20.9801 17.9978C21.5204 17.9595 22.0296 17.7311 22.4176 17.3532C22.8055 16.9753 23.0471 16.4722 23.0996 15.9331C23.2484 14.3951 23.3883 12.4804 23.3883 10.7223C23.3883 8.96415 23.2484 7.04953 23.0996 5.51148C23.0471 4.97241 22.8055 4.46932 22.4176 4.09139C22.0296 3.71345 21.5204 3.48508 20.9801 3.44674L19.9522 3.36787L18.8302 3.29154L17.6356 3.2203L16.3914 3.16051C15.3319 3.11492 14.2715 3.09117 13.211 3.08926ZM10.6666 7.63728C10.6665 7.51294 10.6968 7.39046 10.7549 7.2805C10.8129 7.17054 10.8969 7.07642 10.9996 7.00632C11.1023 6.93623 11.2206 6.89228 11.3441 6.87831C11.4677 6.86433 11.5928 6.88075 11.7085 6.92613L11.8116 6.97702L17.1547 10.0608C17.2611 10.1222 17.3511 10.2083 17.4171 10.3119C17.4831 10.4156 17.5231 10.5336 17.5337 10.6559C17.5443 10.7783 17.5252 10.9015 17.4781 11.0149C17.4309 11.1283 17.3571 11.2287 17.2628 11.3075L17.1547 11.3838L11.8116 14.4688C11.7039 14.5312 11.5826 14.5663 11.4583 14.571C11.334 14.5758 11.2103 14.5501 11.0982 14.4962C10.9861 14.4422 10.8888 14.3617 10.815 14.2616C10.7411 14.1615 10.6928 14.0448 10.6743 13.9218L10.6666 13.8073V7.63728Z" fill="#FEBB00"/>
</svg>
